<?xml version="1.0" standalone="no"?>
<!DOCTYPE svg PUBLIC "-//W3C//DTD SVG 20010904//EN"
 "http://www.w3.org/TR/2001/REC-SVG-20010904/DTD/svg10.dtd">
<svg version="1.0" xmlns="http://www.w3.org/2000/svg"
 width="512.000000pt" height="512.000000pt" viewBox="0 0 512.000000 512.000000"
 preserveAspectRatio="xMidYMid meet">
<metadata>
Created by potrace 1.14, written by Peter Selinger 2001-2017
</metadata>
<g transform="translate(0.000000,512.000000) scale(0.100000,-0.100000)"
fill="#000000" stroke="none">
<path d="M371 5104 c-166 -44 -322 -207 -360 -374 -15 -62 -15 -4277 0 -4340
39 -171 195 -331 366 -375 53 -13 304 -15 2209 -13 l2149 3 57 23 c126 51 242
165 295 292 l28 65 0 2175 0 2175 -28 65 c-53 127 -169 241 -295 292 l-57 23
-2155 2 c-1864 2 -2162 0 -2209 -13z m1920 -1273 c106 -19 287 -66 298 -77 2
-2 -34 -86 -80 -186 l-85 -183 -50 -3 c-36 -2 -65 4 -108 23 -176 78 -444 107
-606 66 -172 -43 -267 -107 -320 -215 -62 -127 -49 -244 38 -328 66 -65 122
-96 327 -183 233 -99 341 -155 425 -221 152 -120 206 -281 166 -498 -37 -193
-112 -342 -235 -465 -153 -151 -357 -242 -649 -287 -150 -23 -573 -23 -727 0
-105 16 -390 102 -390 118 0 4 38 90 85 192 l85 186 45 0 c30 0 83 -15 160
-45 181 -72 250 -86 445 -92 145 -4 184 -2 267 15 212 44 318 133 352 294 17
81 7 156 -29 209 -37 57 -150 132 -335 221 -335 162 -389 191 -446 237 -154
124 -210 282 -170 481 38 188 111 324 241 455 165 165 396 272 658 305 128 16
506 5 638 -19z m2107 18 c189 -20 436 -81 430 -105 -2 -7 -39 -92 -83 -188
l-80 -176 -51 0 c-34 0 -71 9 -109 25 -175 78 -443 107 -605 66 -208 -52 -313
-142 -350 -299 -30 -128 24 -234 160 -317 30 -18 136 -68 235 -110 327 -140
442 -210 521 -317 64 -87 79 -141 79 -278 -1 -138 -25 -239 -90 -375 -122
-254 -374 -422 -735 -490 -199 -37 -559 -41 -794 -9 -101 14 -310 74 -369 106
l-24 13 86 187 86 188 45 0 c30 0 88 -17 173 -50 199 -76 249 -85 477 -85 174
0 204 3 275 23 105 31 168 66 220 125 56 61 87 142 88 227 2 155 -84 229 -478
414 -243 114 -312 154 -384 224 -134 131 -170 298 -110 512 54 195 158 348
322 471 145 109 337 186 537 214 117 16 398 19 528 4z"/>
</g>
</svg>
